<svg width="2062" height="398" viewBox="0 0 2062 398" fill="none" xmlns="http://www.w3.org/2000/svg">
<path d="M427.432 347.402C400.306 299.993 356.827 238.102 349.213 229.104C307.586 172.491 276.319 128.363 253.488 96.1351L246.121 85.7521H246.21C246.6 77.6451 249.683 67.2841 252.667 57.2641C256.087 45.7911 259.618 33.9281 259.686 24.0041C259.776 11.8881 254.472 4.03409 243.9 0.736094C237.97 -1.11791 231.398 0.536098 224.368 5.6461C218.632 9.8181 212.418 16.3441 205.362 25.6001C204.815 26.3201 204.264 27.0521 203.71 27.7971C199.67 22.6421 195.36 17.7061 190.797 13.0101C177.821 -0.0328894 168.381 -2.39289 154.731 3.97611C149.496 6.42011 146.065 10.2971 144.534 15.5651C141.424 26.2111 146.312 42.5411 159.909 66.9681C162.687 71.9461 165.755 77.1551 169.06 82.5501L165.008 89.4661C160.014 98.0051 154.852 106.85 149.806 115.199C136.593 137.113 126.096 152.321 114.988 168.404C100.254 189.733 30.0487 297.622 0.629746 345.706C-0.722254 348.535 0.103733 352.386 3.09773 353.682C54.8067 376.217 100.412 388.976 126.28 393.48C142.418 396.287 171.622 400.681 203.92 395.824C226.499 392.431 247.805 382.965 265.011 367.941C302.682 335.044 324.887 267.443 250.588 180.446C229.677 155.967 199.3 114.23 198.121 112.523C190.886 102.019 183.362 92.1371 177.326 82.4291C186.271 67.1841 195.343 52.1181 203.973 39.5541C214.765 53.6981 228.609 73.2681 247.51 99.9171C270.373 132.188 321.956 215.324 321.956 215.324C349.244 255.301 366.509 295.51 362.01 322.512C359.216 339.301 347.571 363.074 325.039 378.382C320.591 381.712 315.957 384.785 311.158 387.585C303.048 391.613 294.596 394.91 285.901 397.436C285.901 397.436 286.306 397.436 287.085 397.383L286.854 397.436C286.854 397.436 287.022 397.436 287.322 397.367C298.372 396.756 371.318 391.42 424.943 355.362C427.632 353.571 428.784 350.226 427.432 347.402ZM208.14 139.378C235.828 180.13 249.531 193.241 269.179 227.008C299.551 286.065 270.347 381.954 192.086 387.959C157.357 391.615 122.523 378.919 110.889 373.536C74.2657 356.595 61.6207 326.41 67.8407 285.143C75.0227 237.538 106.332 193.436 121.023 172.149C132.194 155.961 142.745 140.669 156.068 118.576C161.135 110.148 166.308 101.324 171.327 92.7641L173.338 89.3291C183.288 105.159 195.99 121.457 208.14 139.378ZM173.169 75.6071C157.725 49.9691 148.107 28.8921 151.469 17.3771C152.442 14.0421 154.552 11.6561 157.92 10.0861C161.503 8.4161 164.624 7.3791 167.765 7.3791C172.953 7.3791 178.184 10.2131 185.619 17.6881C189.65 21.7391 194.17 27.0011 199.479 33.7281C190.939 45.9331 182.025 60.6091 173.169 75.6071ZM240.075 77.2191C226.962 58.7821 216.696 44.5061 208.256 33.5541C209.245 32.1951 210.227 30.8751 211.203 29.5931C224.236 12.4881 234.497 4.95509 241.695 7.20509C257.397 12.1141 253.509 29.4771 245.784 55.4101C243.595 62.7901 241.348 70.2921 240.075 77.2191Z" fill="#E7B554"/>
<path d="M655.52 197.4C668.32 178.2 660.52 156.4 633.92 138.8L601.92 117.8C573.92 99.5999 586.12 72.3999 607.72 72.3999C640.32 72.3999 650.32 97.3999 653.12 112.6H656.12V78.9999C656.12 78.9999 639.32 69.3999 607.72 69.3999C577.92 69.3999 568.12 84.7999 568.12 84.7999C552.12 107.6 566.52 126.6 590.32 141.8L622.12 162.2C646.12 179.4 640.72 210.8 614.92 210.8C580.12 210.8 569.92 181.8 566.72 163.6H563.72V202C563.72 202 579.32 213.8 614.92 213.8C646.52 213.8 655.52 197.4 655.52 197.4ZM781.1 169.4C774.7 209.4 730.5 209 721.7 209H713.5V142.4H723.5C726.1 142.4 752.1 142.4 753.7 163H756.7V119H753.7C752.1 139.4 726.3 139.4 723.5 139.4H713.5V74.1999H722.5C730.7 74.1999 775.1 74.3999 778.5 108.2H781.5V71.1999H677.5V74.1999C686.3 74.1999 688.7 83.1999 688.7 95.5999V186.6C688.7 200.2 685.9 209 677.5 209V212H784.1V169.4H781.1ZM918.7 170.2C914.9 196.4 894.3 210.8 874.3 210.8C853.3 210.8 835.7 199.8 835.7 141.6C835.7 83.9999 852.7 72.3999 874.3 72.3999C893.7 72.3999 910.3 82.7999 918.7 112.8H921.7L924.3 81.5999C911.7 71.3999 894.9 69.3999 874.3 69.3999C832.1 69.3999 804.9 99.1999 804.9 141.6C804.9 183.8 832.1 213.8 874.3 213.8C895.7 213.8 909.5 211.2 924.3 201.4L921.7 170.2H918.7ZM1019.04 109.4C1019.04 144.6 1002.64 144.6 981.44 144.6H975.24V74.1999H981.44C1001.84 74.1999 1019.04 73.7999 1019.04 109.4ZM1068.84 209C1063.64 208.6 1050.24 205.6 1046.24 190.4C1036.24 150.4 1021.44 145.4 1008.24 145.8C1030.84 143.8 1046.44 135.2 1046.44 109.4C1046.44 75.9999 1021.24 71.1999 981.44 71.1999H937.64V74.1999C946.44 74.1999 951.04 78.3999 951.04 90.7999V188.2C951.04 203.4 946.24 209 937.64 209V212H989.24V209C980.84 209 975.24 203.2 975.24 189.4V147.6H984.64C987.24 147.6 1006.64 147.6 1012.64 168.4C1025.44 211.8 1021.24 211.8 1052.04 212H1068.84V209ZM1179.54 169.4C1173.14 209.4 1128.94 209 1120.14 209H1111.94V142.4H1121.94C1124.54 142.4 1150.54 142.4 1152.14 163H1155.14V119H1152.14C1150.54 139.4 1124.74 139.4 1121.94 139.4H1111.94V74.1999H1120.94C1129.14 74.1999 1173.54 74.3999 1176.94 108.2H1179.94V71.1999H1075.94V74.1999C1084.74 74.1999 1087.14 83.1999 1087.14 95.5999V186.6C1087.14 200.2 1084.34 209 1075.94 209V212H1182.54V169.4H1179.54ZM1198.94 71.1999V109H1201.94C1203.14 74.7999 1239.34 74.1999 1242.34 74.1999H1250.14V190.2C1250.14 203.6 1242.74 209 1234.34 209V212H1290.34V209C1281.94 209 1274.54 203.6 1274.54 190.2V74.1999H1282.34C1283.74 74.1999 1321.74 74.7999 1322.94 109H1325.94V71.1999H1198.94ZM1405.13 168L1428.13 105.6L1452.93 168H1405.13ZM1507.33 209C1501.93 208.6 1497.33 209.6 1490.73 193.6C1490.73 193.6 1477.33 159.4 1440.53 71.1999H1437.93L1403.73 162.4C1385.33 209 1380.33 208.8 1373.93 209V212H1420.93V209C1391.13 210.2 1401.73 179 1404.53 171H1454.13L1460.53 187C1462.93 192.6 1469.13 209 1455.93 209V212H1507.33V209ZM1611.98 71.1999V74.1999C1638.78 73.9999 1638.78 112.2 1638.78 121.4V176.6L1555.18 71.1999H1512.18V74.1999C1517.38 74.5999 1523.18 72.7999 1535.98 88.7999L1543.98 98.9999V161.4C1543.98 170.4 1543.98 209 1514.58 209V212H1573.78V209C1546.78 209 1546.98 170.4 1546.98 161.4V102.2L1633.18 212H1641.78V121.4C1641.78 112.2 1641.18 73.9999 1670.78 74.1999V71.1999H1611.98ZM1764.03 156V159C1776.43 159 1780.63 159.8 1780.63 188.4C1780.63 206.6 1774.23 210.8 1750.83 210.8C1728.43 210.8 1713.83 196.6 1713.83 141.6C1713.83 86.5999 1728.03 72.3999 1750.83 72.3999C1774.43 72.3999 1790.03 81.3999 1794.43 113.6H1800.03L1801.43 80.3999C1789.03 72.1999 1773.23 69.3999 1750.83 69.3999C1707.63 69.3999 1682.63 101.8 1682.63 141.6C1682.63 181.4 1707.63 213.8 1750.83 213.8C1772.23 213.8 1789.83 210.2 1802.23 205.4C1802.23 161.8 1804.23 159 1815.83 159V156H1764.03ZM1930.32 169.4C1923.92 209.4 1879.72 209 1870.92 209H1862.72V142.4H1872.72C1875.32 142.4 1901.32 142.4 1902.92 163H1905.92V119H1902.92C1901.32 139.4 1875.52 139.4 1872.72 139.4H1862.72V74.1999H1871.72C1879.92 74.1999 1924.32 74.3999 1927.72 108.2H1930.72V71.1999H1826.72V74.1999C1835.52 74.1999 1837.92 83.1999 1837.92 95.5999V186.6C1837.92 200.2 1835.12 209 1826.72 209V212H1933.32V169.4H1930.32ZM2058.72 168.6C2053.52 209 2010.12 209 1999.32 209H1992.12V91.9999C1992.12 77.5999 2000.12 74.1999 2008.72 74.1999V71.1999H1953.32V74.1999C1961.92 74.1999 1967.52 79.3999 1967.52 91.5999V187.2C1967.52 200.8 1963.52 209 1954.92 209V212H2061.52V168.6H2058.72Z" fill="#E7B554"/>
<path d="M884.95 266.06L873.07 308H868.39L857.83 272.24L847.03 308L842.47 308.06L830.83 266.06H835.33L844.93 302.84L855.67 266.06H860.35L870.79 302.84L880.45 266.06H884.95ZM895.57 269.48V285.14H911.47V288.62H895.57V304.52H913.27V308H891.37V266H913.27V269.48H895.57ZM933.97 266.06C938.61 266.06 942.59 266.9 945.91 268.58C949.23 270.26 951.77 272.68 953.53 275.84C955.29 279 956.17 282.76 956.17 287.12C956.17 291.44 955.29 295.18 953.53 298.34C951.77 301.46 949.23 303.86 945.91 305.54C942.59 307.18 938.61 308 933.97 308H921.55V266.06H933.97ZM933.97 304.52C939.81 304.52 944.25 303 947.29 299.96C950.37 296.88 951.91 292.6 951.91 287.12C951.91 281.6 950.37 277.3 947.29 274.22C944.25 271.1 939.81 269.54 933.97 269.54H925.75V304.52H933.97ZM976.33 266.06C980.97 266.06 984.95 266.9 988.27 268.58C991.59 270.26 994.13 272.68 995.89 275.84C997.65 279 998.53 282.76 998.53 287.12C998.53 291.44 997.65 295.18 995.89 298.34C994.13 301.46 991.59 303.86 988.27 305.54C984.95 307.18 980.97 308 976.33 308H963.91V266.06H976.33ZM976.33 304.52C982.17 304.52 986.61 303 989.65 299.96C992.73 296.88 994.27 292.6 994.27 287.12C994.27 281.6 992.73 277.3 989.65 274.22C986.61 271.1 982.17 269.54 976.33 269.54H968.11V304.52H976.33ZM1010.47 266.06V308H1006.27V266.06H1010.47ZM1051.61 308H1047.41L1024.19 272.72V308H1019.99V266.06H1024.19L1047.41 301.28V266.06H1051.61V308ZM1094.12 278.3C1092.92 275.54 1091.08 273.38 1088.6 271.82C1086.16 270.22 1083.28 269.42 1079.96 269.42C1076.84 269.42 1074.04 270.14 1071.56 271.58C1069.08 273.02 1067.12 275.08 1065.68 277.76C1064.24 280.4 1063.52 283.48 1063.52 287C1063.52 290.52 1064.24 293.62 1065.68 296.3C1067.12 298.98 1069.08 301.04 1071.56 302.48C1074.04 303.92 1076.84 304.64 1079.96 304.64C1082.88 304.64 1085.5 304.02 1087.82 302.78C1090.18 301.5 1092.06 299.7 1093.46 297.38C1094.9 295.02 1095.72 292.28 1095.92 289.16H1078.28V285.74H1100.36V288.8C1100.16 292.48 1099.16 295.82 1097.36 298.82C1095.56 301.78 1093.14 304.12 1090.1 305.84C1087.1 307.56 1083.72 308.42 1079.96 308.42C1076.08 308.42 1072.56 307.52 1069.4 305.72C1066.24 303.88 1063.74 301.34 1061.9 298.1C1060.1 294.82 1059.2 291.12 1059.2 287C1059.2 282.88 1060.1 279.2 1061.9 275.96C1063.74 272.68 1066.24 270.14 1069.4 268.34C1072.56 266.5 1076.08 265.58 1079.96 265.58C1084.44 265.58 1088.36 266.7 1091.72 268.94C1095.08 271.18 1097.52 274.3 1099.04 278.3H1094.12ZM1156.44 308L1150.74 302.18C1148.7 304.42 1146.52 306.08 1144.2 307.16C1141.88 308.2 1139.26 308.72 1136.34 308.72C1133.54 308.72 1131.06 308.2 1128.9 307.16C1126.74 306.08 1125.06 304.58 1123.86 302.66C1122.66 300.74 1122.06 298.52 1122.06 296C1122.06 293.04 1122.9 290.46 1124.58 288.26C1126.26 286.06 1128.72 284.34 1131.96 283.1C1130.56 281.54 1129.54 280.1 1128.9 278.78C1128.26 277.42 1127.94 275.96 1127.94 274.4C1127.94 271.72 1128.9 269.56 1130.82 267.92C1132.74 266.24 1135.3 265.4 1138.5 265.4C1141.5 265.4 1143.94 266.26 1145.82 267.98C1147.7 269.7 1148.58 271.94 1148.46 274.7H1144.26C1144.3 272.9 1143.74 271.48 1142.58 270.44C1141.46 269.4 1140.04 268.88 1138.32 268.88C1136.48 268.88 1134.98 269.4 1133.82 270.44C1132.7 271.44 1132.14 272.74 1132.14 274.34C1132.14 275.62 1132.48 276.86 1133.16 278.06C1133.88 279.26 1135 280.68 1136.52 282.32L1150.32 296.3C1150.88 295.54 1151.64 294.34 1152.6 292.7L1156.44 286.28H1160.94L1156.38 294.14C1155.3 296.02 1154.22 297.7 1153.14 299.18L1161.9 308H1156.44ZM1136.34 305.06C1138.7 305.06 1140.8 304.6 1142.64 303.68C1144.52 302.76 1146.3 301.32 1147.98 299.36L1134.6 285.8C1129.04 287.84 1126.26 291.2 1126.26 295.88C1126.26 297.64 1126.68 299.22 1127.52 300.62C1128.4 301.98 1129.6 303.06 1131.12 303.86C1132.64 304.66 1134.38 305.06 1136.34 305.06ZM1206.43 308L1196.05 290.48H1188.31V308H1184.11V266.06H1196.71C1201.39 266.06 1204.93 267.18 1207.33 269.42C1209.77 271.66 1210.99 274.6 1210.99 278.24C1210.99 281.28 1210.11 283.88 1208.35 286.04C1206.63 288.16 1204.07 289.54 1200.67 290.18L1211.47 308H1206.43ZM1188.31 287.06H1196.77C1200.05 287.06 1202.51 286.26 1204.15 284.66C1205.83 283.06 1206.67 280.92 1206.67 278.24C1206.67 275.48 1205.87 273.36 1204.27 271.88C1202.67 270.36 1200.15 269.6 1196.71 269.6H1188.31V287.06ZM1223.52 269.48V285.14H1239.42V288.62H1223.52V304.52H1241.22V308H1219.32V266H1241.22V269.48H1223.52ZM1247.58 287C1247.58 282.88 1248.48 279.2 1250.28 275.96C1252.08 272.68 1254.54 270.14 1257.66 268.34C1260.78 266.5 1264.26 265.58 1268.1 265.58C1272.78 265.58 1276.78 266.7 1280.1 268.94C1283.46 271.14 1285.9 274.26 1287.42 278.3H1282.5C1281.3 275.46 1279.46 273.24 1276.98 271.64C1274.54 270.04 1271.58 269.24 1268.1 269.24C1265.02 269.24 1262.24 269.96 1259.76 271.4C1257.32 272.84 1255.4 274.92 1254 277.64C1252.6 280.32 1251.9 283.44 1251.9 287C1251.9 290.56 1252.6 293.68 1254 296.36C1255.4 299.04 1257.32 301.1 1259.76 302.54C1262.24 303.98 1265.02 304.7 1268.1 304.7C1271.58 304.7 1274.54 303.92 1276.98 302.36C1279.46 300.76 1281.3 298.56 1282.5 295.76H1287.42C1285.9 299.76 1283.46 302.86 1280.1 305.06C1276.74 307.26 1272.74 308.36 1268.1 308.36C1264.26 308.36 1260.78 307.46 1257.66 305.66C1254.54 303.82 1252.08 301.28 1250.28 298.04C1248.48 294.8 1247.58 291.12 1247.58 287ZM1299.99 269.48V285.14H1315.89V288.62H1299.99V304.52H1317.69V308H1295.79V266H1317.69V269.48H1299.99ZM1352.78 278.12C1352.78 281.72 1351.6 284.62 1349.24 286.82C1346.88 289.02 1343.34 290.12 1338.62 290.12H1330.16V308H1325.96V266.06H1338.62C1343.3 266.06 1346.82 267.16 1349.18 269.36C1351.58 271.56 1352.78 274.48 1352.78 278.12ZM1338.62 286.52C1345.18 286.52 1348.46 283.72 1348.46 278.12C1348.46 275.32 1347.68 273.2 1346.12 271.76C1344.56 270.32 1342.06 269.6 1338.62 269.6H1330.16V286.52H1338.62ZM1384.37 266.06V269.54H1372.73V308H1368.53V269.54H1356.83V266.06H1384.37ZM1395.2 266.06V308H1391V266.06H1395.2ZM1423.55 308.42C1419.67 308.42 1416.15 307.52 1412.99 305.72C1409.83 303.88 1407.33 301.34 1405.49 298.1C1403.69 294.82 1402.79 291.12 1402.79 287C1402.79 282.88 1403.69 279.2 1405.49 275.96C1407.33 272.68 1409.83 270.14 1412.99 268.34C1416.15 266.5 1419.67 265.58 1423.55 265.58C1427.47 265.58 1431.01 266.5 1434.17 268.34C1437.33 270.14 1439.81 272.68 1441.61 275.96C1443.41 279.2 1444.31 282.88 1444.31 287C1444.31 291.12 1443.41 294.82 1441.61 298.1C1439.81 301.34 1437.33 303.88 1434.17 305.72C1431.01 307.52 1427.47 308.42 1423.55 308.42ZM1423.55 304.76C1426.67 304.76 1429.47 304.04 1431.95 302.6C1434.43 301.16 1436.39 299.1 1437.83 296.42C1439.27 293.7 1439.99 290.56 1439.99 287C1439.99 283.44 1439.27 280.32 1437.83 277.64C1436.39 274.96 1434.43 272.9 1431.95 271.46C1429.47 270.02 1426.67 269.3 1423.55 269.3C1420.43 269.3 1417.63 270.02 1415.15 271.46C1412.67 272.9 1410.71 274.96 1409.27 277.64C1407.83 280.32 1407.11 283.44 1407.11 287C1407.11 290.56 1407.83 293.7 1409.27 296.42C1410.71 299.1 1412.67 301.16 1415.15 302.6C1417.63 304.04 1420.43 304.76 1423.55 304.76ZM1483.62 308H1479.42L1456.2 272.72V308H1452V266.06H1456.2L1479.42 301.28V266.06H1483.62V308ZM1522.01 266.06C1526.65 266.06 1530.63 266.9 1533.95 268.58C1537.27 270.26 1539.81 272.68 1541.57 275.84C1543.33 279 1544.21 282.76 1544.21 287.12C1544.21 291.44 1543.33 295.18 1541.57 298.34C1539.81 301.46 1537.27 303.86 1533.95 305.54C1530.63 307.18 1526.65 308 1522.01 308H1509.59V266.06H1522.01ZM1522.01 304.52C1527.85 304.52 1532.29 303 1535.33 299.96C1538.41 296.88 1539.95 292.6 1539.95 287.12C1539.95 281.6 1538.41 277.3 1535.33 274.22C1532.29 271.1 1527.85 269.54 1522.01 269.54H1513.79V304.52H1522.01ZM1574.28 308L1563.9 290.48H1556.16V308H1551.96V266.06H1564.56C1569.24 266.06 1572.78 267.18 1575.18 269.42C1577.62 271.66 1578.84 274.6 1578.84 278.24C1578.84 281.28 1577.96 283.88 1576.2 286.04C1574.48 288.16 1571.92 289.54 1568.52 290.18L1579.32 308H1574.28ZM1556.16 287.06H1564.62C1567.9 287.06 1570.36 286.26 1572 284.66C1573.68 283.06 1574.52 280.92 1574.52 278.24C1574.52 275.48 1573.72 273.36 1572.12 271.88C1570.52 270.36 1568 269.6 1564.56 269.6H1556.16V287.06ZM1591.37 269.48V285.14H1607.27V288.62H1591.37V304.52H1609.07V308H1587.17V266H1609.07V269.48H1591.37ZM1630.07 308.42C1627.31 308.42 1624.87 307.94 1622.75 306.98C1620.67 306.02 1619.03 304.68 1617.83 302.96C1616.63 301.24 1615.99 299.32 1615.91 297.2H1620.35C1620.55 299.24 1621.45 301.04 1623.05 302.6C1624.65 304.12 1626.99 304.88 1630.07 304.88C1632.91 304.88 1635.15 304.16 1636.79 302.72C1638.47 301.24 1639.31 299.38 1639.31 297.14C1639.31 295.34 1638.85 293.9 1637.93 292.82C1637.01 291.7 1635.87 290.88 1634.51 290.36C1633.15 289.8 1631.27 289.2 1628.87 288.56C1626.07 287.8 1623.85 287.06 1622.21 286.34C1620.57 285.62 1619.17 284.5 1618.01 282.98C1616.85 281.46 1616.27 279.4 1616.27 276.8C1616.27 274.64 1616.83 272.72 1617.95 271.04C1619.07 269.32 1620.65 267.98 1622.69 267.02C1624.73 266.06 1627.07 265.58 1629.71 265.58C1633.59 265.58 1636.71 266.54 1639.07 268.46C1641.47 270.34 1642.85 272.78 1643.21 275.78H1638.65C1638.37 274.06 1637.43 272.54 1635.83 271.22C1634.23 269.86 1632.07 269.18 1629.35 269.18C1626.83 269.18 1624.73 269.86 1623.05 271.22C1621.37 272.54 1620.53 274.36 1620.53 276.68C1620.53 278.44 1620.99 279.86 1621.91 280.94C1622.83 282.02 1623.97 282.84 1625.33 283.4C1626.73 283.96 1628.61 284.56 1630.97 285.2C1633.69 285.96 1635.89 286.72 1637.57 287.48C1639.25 288.2 1640.67 289.32 1641.83 290.84C1642.99 292.36 1643.57 294.4 1643.57 296.96C1643.57 298.92 1643.05 300.78 1642.01 302.54C1640.97 304.3 1639.43 305.72 1637.39 306.8C1635.35 307.88 1632.91 308.42 1630.07 308.42ZM1664.4 308.42C1661.64 308.42 1659.2 307.94 1657.08 306.98C1655 306.02 1653.36 304.68 1652.16 302.96C1650.96 301.24 1650.32 299.32 1650.24 297.2H1654.68C1654.88 299.24 1655.78 301.04 1657.38 302.6C1658.98 304.12 1661.32 304.88 1664.4 304.88C1667.24 304.88 1669.48 304.16 1671.12 302.72C1672.8 301.24 1673.64 299.38 1673.64 297.14C1673.64 295.34 1673.18 293.9 1672.26 292.82C1671.34 291.7 1670.2 290.88 1668.84 290.36C1667.48 289.8 1665.6 289.2 1663.2 288.56C1660.4 287.8 1658.18 287.06 1656.54 286.34C1654.9 285.62 1653.5 284.5 1652.34 282.98C1651.18 281.46 1650.6 279.4 1650.6 276.8C1650.6 274.64 1651.16 272.72 1652.28 271.04C1653.4 269.32 1654.98 267.98 1657.02 267.02C1659.06 266.06 1661.4 265.58 1664.04 265.58C1667.92 265.58 1671.04 266.54 1673.4 268.46C1675.8 270.34 1677.18 272.78 1677.54 275.78H1672.98C1672.7 274.06 1671.76 272.54 1670.16 271.22C1668.56 269.86 1666.4 269.18 1663.68 269.18C1661.16 269.18 1659.06 269.86 1657.38 271.22C1655.7 272.54 1654.86 274.36 1654.86 276.68C1654.86 278.44 1655.32 279.86 1656.24 280.94C1657.16 282.02 1658.3 282.84 1659.66 283.4C1661.06 283.96 1662.94 284.56 1665.3 285.2C1668.02 285.96 1670.22 286.72 1671.9 287.48C1673.58 288.2 1675 289.32 1676.16 290.84C1677.32 292.36 1677.9 294.4 1677.9 296.96C1677.9 298.92 1677.38 300.78 1676.34 302.54C1675.3 304.3 1673.76 305.72 1671.72 306.8C1669.68 307.88 1667.24 308.42 1664.4 308.42ZM1690.22 269.48V285.14H1706.12V288.62H1690.22V304.52H1707.92V308H1686.02V266H1707.92V269.48H1690.22ZM1728.92 308.42C1726.16 308.42 1723.72 307.94 1721.6 306.98C1719.52 306.02 1717.88 304.68 1716.68 302.96C1715.48 301.24 1714.84 299.32 1714.76 297.2H1719.2C1719.4 299.24 1720.3 301.04 1721.9 302.6C1723.5 304.12 1725.84 304.88 1728.92 304.88C1731.76 304.88 1734 304.16 1735.64 302.72C1737.32 301.24 1738.16 299.38 1738.16 297.14C1738.16 295.34 1737.7 293.9 1736.78 292.82C1735.86 291.7 1734.72 290.88 1733.36 290.36C1732 289.8 1730.12 289.2 1727.72 288.56C1724.92 287.8 1722.7 287.06 1721.06 286.34C1719.42 285.62 1718.02 284.5 1716.86 282.98C1715.7 281.46 1715.12 279.4 1715.12 276.8C1715.12 274.64 1715.68 272.72 1716.8 271.04C1717.92 269.32 1719.5 267.98 1721.54 267.02C1723.58 266.06 1725.92 265.58 1728.56 265.58C1732.44 265.58 1735.56 266.54 1737.92 268.46C1740.32 270.34 1741.7 272.78 1742.06 275.78H1737.5C1737.22 274.06 1736.28 272.54 1734.68 271.22C1733.08 269.86 1730.92 269.18 1728.2 269.18C1725.68 269.18 1723.58 269.86 1721.9 271.22C1720.22 272.54 1719.38 274.36 1719.38 276.68C1719.38 278.44 1719.84 279.86 1720.76 280.94C1721.68 282.02 1722.82 282.84 1724.18 283.4C1725.58 283.96 1727.46 284.56 1729.82 285.2C1732.54 285.96 1734.74 286.72 1736.42 287.48C1738.1 288.2 1739.52 289.32 1740.68 290.84C1741.84 292.36 1742.42 294.4 1742.42 296.96C1742.42 298.92 1741.9 300.78 1740.86 302.54C1739.82 304.3 1738.28 305.72 1736.24 306.8C1734.2 307.88 1731.76 308.42 1728.92 308.42Z" fill="#E7B554"/>
</svg>
