<svg width="360" height="60" viewBox="0 0 360 60" fill="none" xmlns="http://www.w3.org/2000/svg">
<rect x="0.5" y="0.5" width="359" height="59" stroke="#282828"/>
<path d="M101.06 35.175C102.66 32.775 101.685 30.05 98.3599 27.85L94.3599 25.225C90.8599 22.95 92.3849 19.55 95.0849 19.55C99.1599 19.55 100.41 22.675 100.76 24.575H101.135V20.375C101.135 20.375 99.0349 19.175 95.0849 19.175C91.3599 19.175 90.1349 21.1 90.1349 21.1C88.1349 23.95 89.9349 26.325 92.9099 28.225L96.8849 30.775C99.8849 32.925 99.2099 36.85 95.9849 36.85C91.6349 36.85 90.3599 33.225 89.9599 30.95H89.5849V35.75C89.5849 35.75 91.5349 37.225 95.9849 37.225C99.9349 37.225 101.06 35.175 101.06 35.175ZM116.758 31.675C115.958 36.675 110.433 36.625 109.333 36.625H108.308V28.3H109.558C109.883 28.3 113.133 28.3 113.333 30.875H113.708V25.375H113.333C113.133 27.925 109.908 27.925 109.558 27.925H108.308V19.775H109.433C110.458 19.775 116.008 19.8 116.433 24.025H116.808V19.4H103.808V19.775C104.908 19.775 105.208 20.9 105.208 22.45V33.825C105.208 35.525 104.858 36.625 103.808 36.625V37H117.133V31.675H116.758ZM133.958 31.775C133.483 35.05 130.908 36.85 128.408 36.85C125.783 36.85 123.583 35.475 123.583 28.2C123.583 21 125.708 19.55 128.408 19.55C130.833 19.55 132.908 20.85 133.958 24.6H134.333L134.658 20.7C133.083 19.425 130.983 19.175 128.408 19.175C123.133 19.175 119.733 22.9 119.733 28.2C119.733 33.475 123.133 37.225 128.408 37.225C131.083 37.225 132.808 36.9 134.658 35.675L134.333 31.775H133.958ZM146.5 24.175C146.5 28.575 144.45 28.575 141.8 28.575H141.025V19.775H141.8C144.35 19.775 146.5 19.725 146.5 24.175ZM152.725 36.625C152.075 36.575 150.4 36.2 149.9 34.3C148.65 29.3 146.8 28.675 145.15 28.725C147.975 28.475 149.925 27.4 149.925 24.175C149.925 20 146.775 19.4 141.8 19.4H136.325V19.775C137.425 19.775 138 20.3 138 21.85V34.025C138 35.925 137.4 36.625 136.325 36.625V37H142.775V36.625C141.725 36.625 141.025 35.9 141.025 34.175V28.95H142.2C142.525 28.95 144.95 28.95 145.7 31.55C147.3 36.975 146.775 36.975 150.625 37H152.725V36.625ZM166.563 31.675C165.763 36.675 160.238 36.625 159.138 36.625H158.113V28.3H159.363C159.688 28.3 162.938 28.3 163.138 30.875H163.513V25.375H163.138C162.938 27.925 159.713 27.925 159.363 27.925H158.113V19.775H159.238C160.263 19.775 165.813 19.8 166.238 24.025H166.613V19.4H153.613V19.775C154.713 19.775 155.013 20.9 155.013 22.45V33.825C155.013 35.525 154.663 36.625 153.613 36.625V37H166.938V31.675H166.563ZM168.988 19.4V24.125H169.363C169.513 19.85 174.038 19.775 174.413 19.775H175.388V34.275C175.388 35.95 174.463 36.625 173.413 36.625V37H180.413V36.625C179.363 36.625 178.438 35.95 178.438 34.275V19.775H179.413C179.588 19.775 184.338 19.85 184.488 24.125H184.863V19.4H168.988ZM194.761 31.5L197.636 23.7L200.736 31.5H194.761ZM207.536 36.625C206.861 36.575 206.286 36.7 205.461 34.7C205.461 34.7 203.786 30.425 199.186 19.4H198.861L194.586 30.8C192.286 36.625 191.661 36.6 190.861 36.625V37H196.736V36.625C193.011 36.775 194.336 32.875 194.686 31.875H200.886L201.686 33.875C201.986 34.575 202.761 36.625 201.111 36.625V37H207.536V36.625ZM220.617 19.4V19.775C223.967 19.75 223.967 24.525 223.967 25.675V32.575L213.517 19.4H208.142V19.775C208.792 19.825 209.517 19.6 211.117 21.6L212.117 22.875V30.675C212.117 31.8 212.117 36.625 208.442 36.625V37H215.842V36.625C212.467 36.625 212.492 31.8 212.492 30.675V23.275L223.267 37H224.342V25.675C224.342 24.525 224.267 19.75 227.967 19.775V19.4H220.617ZM239.624 30V30.375C241.174 30.375 241.699 30.475 241.699 34.05C241.699 36.325 240.899 36.85 237.974 36.85C235.174 36.85 233.349 35.075 233.349 28.2C233.349 21.325 235.124 19.55 237.974 19.55C240.924 19.55 242.874 20.675 243.424 24.7H244.124L244.299 20.55C242.749 19.525 240.774 19.175 237.974 19.175C232.574 19.175 229.449 23.225 229.449 28.2C229.449 33.175 232.574 37.225 237.974 37.225C240.649 37.225 242.849 36.775 244.399 36.175C244.399 30.725 244.649 30.375 246.099 30.375V30H239.624ZM260.411 31.675C259.611 36.675 254.086 36.625 252.986 36.625H251.961V28.3H253.211C253.536 28.3 256.786 28.3 256.986 30.875H257.361V25.375H256.986C256.786 27.925 253.561 27.925 253.211 27.925H251.961V19.775H253.086C254.111 19.775 259.661 19.8 260.086 24.025H260.461V19.4H247.461V19.775C248.561 19.775 248.861 20.9 248.861 22.45V33.825C248.861 35.525 248.511 36.625 247.461 36.625V37H260.786V31.675H260.411ZM276.461 31.575C275.811 36.625 270.386 36.625 269.036 36.625H268.136V22C268.136 20.2 269.136 19.775 270.211 19.775V19.4H263.286V19.775C264.361 19.775 265.061 20.425 265.061 21.95V33.9C265.061 35.6 264.561 36.625 263.486 36.625V37H276.811V31.575H276.461Z" fill="#282828"/>
</svg>
